<?xml version="1.0" encoding="UTF-8" standalone="no"?>
<!-- Created with Inkscape (http://www.inkscape.org/) -->

<svg
   version="1.1"
   id="svg2"
   width="3333.3333"
   height="3333.3333"
   viewBox="0 0 3333.3333 3333.3333"
   sodipodi:docname="hr_people_and_check_mark_line_icon_vector.eps"
   xmlns:inkscape="http://www.inkscape.org/namespaces/inkscape"
   xmlns:sodipodi="http://sodipodi.sourceforge.net/DTD/sodipodi-0.dtd"
   xmlns="http://www.w3.org/2000/svg"
   xmlns:svg="http://www.w3.org/2000/svg">
  <defs
     id="defs6">
    <clipPath
       clipPathUnits="userSpaceOnUse"
       id="clipPath20">
      <path
         d="m 15213.9,19116.6 c 93.9,-36.2 189.5,-76.6 291.7,-123 502.6,-231.3 976.1,-516.2 1407,-846.3 11.8,-9.2 23.7,-18.5 35.6,-27.8 l -647.6,-86.1 c -65.6,-8.6 -111.6,-68.8 -102.9,-134.5 8,-60.2 59.4,-103.9 118.6,-103.9 5.3,0 10.5,0.3 15.9,1.1 l 923.9,122.7 c 65.5,8.7 111.7,68.9 102.9,134.5 l -122.6,923.9 c -8.7,65.6 -68.9,111.6 -134.5,102.9 -65.5,-8.6 -111.7,-68.8 -102.9,-134.4 l 83.2,-627 c -7.8,6.1 -15.6,12.2 -23.5,18.3 -445.5,341.3 -934.3,635.4 -1453.5,874.3 -107,48.7 -206.7,90.8 -303.3,128.1 -3113.1,1256 -6715.02,269.5 -8758.84,-2399.5 -2041.84,-2668.3 -2054.59,-6403.3 -31.11,-9082.7 23.51,-31.2 59.4,-47.6 95.66,-47.6 25.14,0 50.4,7.9 72.03,24.2 52.74,39.9 63.26,115 23.39,167.7 -1958.81,2593.9 -1946.42,6209.7 30.17,8792.9 1978.69,2584 5465.5,3538.8 8480.7,2322.2 z m 3273.9,-2213.5 c -39.8,53 -114.9,63.5 -167.7,23.4 -52.7,-39.9 -63.2,-114.9 -23.3,-167.7 1959.1,-2594.3 1946.7,-6209.7 -30.2,-8791.9 -1977.1,-2582.9 -5464,-3539.3 -8479.36,-2326.6 -97.41,40.4 -194.93,82.9 -291.05,126.6 -500.73,229.3 -974.91,514.1 -1409.8,846.8 -9.82,7.5 -19.56,15.1 -29.35,22.7 l 642.46,85.4 c 65.59,8.6 111.67,68.8 102.9,134.4 -8.65,65.6 -68.41,111.5 -134.48,102.9 L 7744,6836.4 c -65.48,-8.7 -111.68,-68.9 -102.9,-134.5 l 122.67,-924.1 c 7.95,-60.2 59.4,-103.9 118.57,-103.9 5.26,0 10.52,0.3 15.9,1 65.48,8.7 111.68,68.9 102.9,134.5 l -83.92,632.4 c 7.98,-6.1 15.93,-12.4 23.94,-18.5 448.8,-343.4 938.42,-637.5 1455.74,-874.3 98.82,-44.9 198.92,-88.6 299.95,-130.4 904.05,-363.7 1848.75,-538.6 2784.75,-538.6 2289.7,0 4525.6,1047.4 5975.1,2941.4 2042.1,2667.3 2055,6401.9 31.1,9081.7 z m -8027.5,-4925.4 c 8.6,4.9 17,9.4 22.6,12.3 234.8,108.6 527.7,206.6 786.2,293.1 271.4,90.7 485.7,162.4 586.4,229.3 32.8,21.6 119.6,78.8 118.8,477.8 -0.1,34.9 -15.7,68.3 -42.2,91.1 -5.1,4.3 -509.6,444.8 -509.6,1258.8 0,309.8 191.7,1116.4 1067,1129.6 3.4,0.1 6.8,0.2 10.1,0.6 3.4,-0.4 6.7,-0.5 10.2,-0.6 874.9,-13.2 1066.4,-819.8 1066.4,-1129.6 0,-814 -504,-1254.6 -508.8,-1258.7 -26.8,-22.7 -42.3,-56 -42.4,-91.2 -0.8,-399 86.1,-456.2 118.3,-477.5 101.2,-67.2 315.5,-138.9 586.9,-229.6 258.5,-86.5 551.4,-184.5 782.9,-291.6 l 35.2,-18.1 c 264.5,-124.2 435.5,-392.8 435.5,-684.2 0,-91.6 -16.2,-180.7 -48.4,-264.7 -23.5,-61.8 7.4,-131 69.2,-154.6 61.6,-23.7 131,7.3 154.6,69.2 42.6,111.4 64.1,229.2 64.1,350.1 0,383.8 -225,737.5 -568.2,898.5 l -38.1,19.6 c -246.9,114.2 -546.5,214.4 -810.9,302.8 -218.8,73.2 -426.2,142.6 -513.9,192.2 -13.1,39 -24.2,136.9 -27,236.3 137.5,136 550.5,610.1 550.5,1401.5 0,542.5 -346.8,1354.7 -1302.4,1369.1 v -1.8 c -13.7,2.6 -27.6,3 -40.7,1.6 -945.8,-21.9 -1289.6,-829 -1289.6,-1368.9 0,-791.6 413.4,-1265.6 551.1,-1401.5 -2.9,-98.3 -14.1,-197.4 -27,-236.3 -87.1,-49.4 -294.8,-118.8 -513.9,-192.2 -264.4,-88.4 -564,-188.6 -814.1,-304.3 -13.6,-6.8 -26.5,-13.6 -29.7,-16.1 -348.3,-162.9 -573.38,-516.4 -573.38,-900.5 0,-120.1 21.04,-237.6 62.44,-349.2 17.89,-48.1 63.62,-78 112.26,-78 13.92,0 27.95,2.4 41.75,7.5 61.93,23.1 93.53,92 70.53,154 -31.5,84.7 -47.5,174.1 -47.5,265.7 0,291.5 170.8,559.9 444.8,688.5 z M 7066,11859.9 c -33.33,81.2 -50.16,168.1 -50.16,258 0,291.9 210.13,551.7 576.73,713 146.17,64.7 291.4,124.3 424.01,178.8 242.53,99.6 434.07,178.3 537.33,246.7 31.8,20.7 116.23,75.9 115.07,454.2 -0.12,35.2 -15.67,68.5 -42.57,91.2 -4.68,4 -473.83,408.7 -473.83,1173.1 0,288.1 178.21,1038.1 991.86,1050 3.04,0 5.96,0.3 8.89,0.5 3.04,-0.2 5.96,-0.5 9,-0.5 813.65,-11.9 991.87,-761.9 991.87,-1050 0,-758.9 -469.39,-1169.3 -473.84,-1173.1 -26.9,-22.7 -42.44,-56 -42.56,-91.2 -1.17,-378.3 83.26,-433.5 114.48,-453.8 96,-63.5 298.02,-131.3 554.02,-217.2 170.4,-57 363.6,-121.8 538.6,-190.8 61.4,-24 131,6.1 155.3,67.6 24.2,61.5 -5.9,130.9 -67.6,155.3 -180.7,71.2 -377,137 -550.1,195 -203.9,68.3 -397.05,133.1 -480.66,179.4 -11.34,37 -21.05,125 -23.85,213.1 132.11,131.2 515.71,576.1 515.71,1315.7 0,511.1 -327,1276.2 -1227.86,1289.5 v -1.2 c -13.68,2.5 -27.48,2.7 -40.35,0.9 -889.18,-21.8 -1212.4,-781.1 -1212.4,-1289.2 0,-739.7 383.67,-1184.6 515.7,-1315.8 -2.7,-88.5 -12.64,-177.1 -24.1,-213.7 -91.44,-55 -272.11,-129.1 -479.08,-214.2 -134.48,-55.2 -281.71,-115.7 -429.63,-181.2 -457.34,-201.2 -719.63,-540.9 -719.63,-932.1 0,-121.2 22.92,-238.5 67.94,-348.8 19.06,-46.3 63.73,-74.4 110.86,-74.4 15.2,0 30.52,2.8 45.36,8.9 61.16,25.1 90.51,95 65.49,156.3 z m 9528.7,1585.3 c -11.4,36.7 -21.4,125.4 -24.3,214.1 132.2,131.3 515.5,576.2 515.5,1315.6 0,511.1 -327,1276.3 -1227.9,1289.5 v -1.2 c -13.8,2.5 -27.4,2.7 -40.4,0.9 -888.5,-21.8 -1211.5,-781.1 -1211.5,-1289.2 0,-739.6 383.1,-1184.5 514.9,-1315.7 -2.7,-88 -12.4,-176.3 -23.6,-213.4 -82.3,-45.4 -272.9,-109.3 -473.6,-176.5 -175.3,-58.7 -373.9,-125.2 -556.9,-197.7 -61.5,-24.4 -91.6,-93.9 -67.2,-155.5 24.3,-61.6 94.1,-91.4 155.4,-67.2 177,70.2 372.3,135.5 544.7,193.3 252.8,84.7 452.4,151.6 547.8,214.7 34.3,22.7 114.5,75.9 113.6,453.7 -0.2,34.9 -15.7,68.2 -42.1,90.9 -4.8,4.1 -473.5,414.4 -473.5,1173.4 0,288.1 178,1038.1 990.9,1050 3.1,0 6,0.3 9,0.5 2.9,-0.2 6,-0.5 9,-0.5 813.7,-11.9 991.9,-761.9 991.9,-1050 0,-758.9 -469.4,-1169.3 -473.8,-1173.1 -27.1,-22.8 -42.6,-56.2 -42.6,-91.5 0,-377.5 80.1,-430.7 114.4,-453.5 103.3,-68.4 293.5,-146.5 534.4,-245.5 133.6,-54.8 280.3,-115 427.8,-180.4 366.3,-161.3 576.4,-421.1 576.4,-713 0,-89.4 -16.7,-176.7 -49.6,-259 -24.5,-61.5 5.4,-131.1 66.8,-155.6 14.6,-5.9 29.6,-8.6 44.4,-8.6 47.5,0 92.5,28.6 111.2,75.3 44.2,110.9 66.7,227.8 66.7,347.9 0,391.2 -262.3,731 -719.2,932 -149.3,66.2 -297.9,127.3 -433.6,183 -205.1,84.2 -384,157.7 -475,212.3 z M 9032.65,9642.3 c -46.78,46.5 -122.55,46.7 -169.33,-0.3 l -674.37,-675.8 -332.57,332.7 c -46.78,46.8 -122.55,46.8 -169.33,0 -46.77,-46.7 -46.77,-122.5 0,-169.3 l 417.35,-417.5 c 22.45,-22.4 52.86,-35 84.66,-35 31.81,0 62.33,12.6 84.78,35.2 l 759.04,760.6 c 46.66,46.8 46.66,122.6 -0.23,169.4 z M 8360.73,8035.6 c 620.82,0 1125.99,505.1 1125.99,1125.9 0,620.9 -505.17,1126 -1125.99,1126 -620.82,0 -1125.99,-505.1 -1125.99,-1126 0,-620.8 505.17,-1125.9 1125.99,-1125.9 z m 0,-239.5 c -752.96,0 -1365.48,612.5 -1365.48,1365.4 0,753 612.52,1365.5 1365.48,1365.5 752.95,0 1365.47,-612.5 1365.47,-1365.5 0,-752.9 -612.52,-1365.4 -1365.47,-1365.4 z m 1910.97,795.4 c -66.2,0 -119.7,-53.6 -119.7,-119.8 0,-66.2 53.5,-119.7 119.7,-119.7 h 6289.9 c 66.2,0 119.8,53.5 119.8,119.7 0,66.2 -53.6,119.8 -119.8,119.8 z m 7568.8,1379.6 h -7568.8 c -66.2,0 -119.7,-53.6 -119.7,-119.8 0,-66.1 53.5,-119.7 119.7,-119.7 h 7568.8 c 66.2,0 119.7,53.6 119.7,119.7 0,66.2 -53.5,119.8 -119.7,119.8 z m 0,-929.3 h -7568.8 c -66.2,0 -119.7,53.5 -119.7,119.7 0,66.2 53.5,119.8 119.7,119.8 h 7568.8 c 66.2,0 119.7,-53.6 119.7,-119.8 0,-66.2 -53.5,-119.7 -119.7,-119.7 z"
         id="path18" />
    </clipPath>
    <linearGradient
       x1="0"
       y1="0"
       x2="1"
       y2="0"
       gradientUnits="userSpaceOnUse"
       gradientTransform="matrix(-7498.38,12987.6,12987.6,7498.38,16249,5886.6)"
       spreadMethod="pad"
       id="linearGradient32">
      <stop
         style="stop-opacity:1;stop-color:#2254e3"
         offset="0"
         id="stop22" />
      <stop
         style="stop-opacity:1;stop-color:#0080ff"
         offset="0.404861"
         id="stop24" />
      <stop
         style="stop-opacity:1;stop-color:#0df7ff"
         offset="0.79938672"
         id="stop26" />
      <stop
         style="stop-opacity:1;stop-color:#0df7ff"
         offset="0.885417"
         id="stop28" />
      <stop
         style="stop-opacity:1;stop-color:#0df7ff"
         offset="1"
         id="stop30" />
    </linearGradient>
  </defs>
  <sodipodi:namedview
     id="namedview4"
     pagecolor="#ffffff"
     bordercolor="#000000"
     borderopacity="0.25"
     inkscape:showpageshadow="2"
     inkscape:pageopacity="0.0"
     inkscape:pagecheckerboard="0"
     inkscape:deskcolor="#d1d1d1" />
  <g
     id="g8"
     inkscape:groupmode="layer"
     inkscape:label="ink_ext_XXXXXX"
     transform="matrix(1.3333333,0,0,-1.3333333,0,3333.3333)">
    <g
       id="g10"
       transform="scale(0.1)">
      <path
         d="M 0,0 H 25000 V 25000 H 0 V 0"
         style="fill:#08082d;fill-opacity:1;fill-rule:nonzero;stroke:none"
         id="path12" />
      <g
         id="g14">
        <g
           id="g16"
           clip-path="url(#clipPath20)">
          <path
             d="m 15213.9,19116.6 c 93.9,-36.2 189.5,-76.6 291.7,-123 502.6,-231.3 976.1,-516.2 1407,-846.3 11.8,-9.2 23.7,-18.5 35.6,-27.8 l -647.6,-86.1 c -65.6,-8.6 -111.6,-68.8 -102.9,-134.5 8,-60.2 59.4,-103.9 118.6,-103.9 5.3,0 10.5,0.3 15.9,1.1 l 923.9,122.7 c 65.5,8.7 111.7,68.9 102.9,134.5 l -122.6,923.9 c -8.7,65.6 -68.9,111.6 -134.5,102.9 -65.5,-8.6 -111.7,-68.8 -102.9,-134.4 l 83.2,-627 c -7.8,6.1 -15.6,12.2 -23.5,18.3 -445.5,341.3 -934.3,635.4 -1453.5,874.3 -107,48.7 -206.7,90.8 -303.3,128.1 -3113.1,1256 -6715.02,269.5 -8758.84,-2399.5 -2041.84,-2668.3 -2054.59,-6403.3 -31.11,-9082.7 23.51,-31.2 59.4,-47.6 95.66,-47.6 25.14,0 50.4,7.9 72.03,24.2 52.74,39.9 63.26,115 23.39,167.7 -1958.81,2593.9 -1946.42,6209.7 30.17,8792.9 1978.69,2584 5465.5,3538.8 8480.7,2322.2 z m 3273.9,-2213.5 c -39.8,53 -114.9,63.5 -167.7,23.4 -52.7,-39.9 -63.2,-114.9 -23.3,-167.7 1959.1,-2594.3 1946.7,-6209.7 -30.2,-8791.9 -1977.1,-2582.9 -5464,-3539.3 -8479.36,-2326.6 -97.41,40.4 -194.93,82.9 -291.05,126.6 -500.73,229.3 -974.91,514.1 -1409.8,846.8 -9.82,7.5 -19.56,15.1 -29.35,22.7 l 642.46,85.4 c 65.59,8.6 111.67,68.8 102.9,134.4 -8.65,65.6 -68.41,111.5 -134.48,102.9 L 7744,6836.4 c -65.48,-8.7 -111.68,-68.9 -102.9,-134.5 l 122.67,-924.1 c 7.95,-60.2 59.4,-103.9 118.57,-103.9 5.26,0 10.52,0.3 15.9,1 65.48,8.7 111.68,68.9 102.9,134.5 l -83.92,632.4 c 7.98,-6.1 15.93,-12.4 23.94,-18.5 448.8,-343.4 938.42,-637.5 1455.74,-874.3 98.82,-44.9 198.92,-88.6 299.95,-130.4 904.05,-363.7 1848.75,-538.6 2784.75,-538.6 2289.7,0 4525.6,1047.4 5975.1,2941.4 2042.1,2667.3 2055,6401.9 31.1,9081.7 z m -8027.5,-4925.4 c 8.6,4.9 17,9.4 22.6,12.3 234.8,108.6 527.7,206.6 786.2,293.1 271.4,90.7 485.7,162.4 586.4,229.3 32.8,21.6 119.6,78.8 118.8,477.8 -0.1,34.9 -15.7,68.3 -42.2,91.1 -5.1,4.3 -509.6,444.8 -509.6,1258.8 0,309.8 191.7,1116.4 1067,1129.6 3.4,0.1 6.8,0.2 10.1,0.6 3.4,-0.4 6.7,-0.5 10.2,-0.6 874.9,-13.2 1066.4,-819.8 1066.4,-1129.6 0,-814 -504,-1254.6 -508.8,-1258.7 -26.8,-22.7 -42.3,-56 -42.4,-91.2 -0.8,-399 86.1,-456.2 118.3,-477.5 101.2,-67.2 315.5,-138.9 586.9,-229.6 258.5,-86.5 551.4,-184.5 782.9,-291.6 l 35.2,-18.1 c 264.5,-124.2 435.5,-392.8 435.5,-684.2 0,-91.6 -16.2,-180.7 -48.4,-264.7 -23.5,-61.8 7.4,-131 69.2,-154.6 61.6,-23.7 131,7.3 154.6,69.2 42.6,111.4 64.1,229.2 64.1,350.1 0,383.8 -225,737.5 -568.2,898.5 l -38.1,19.6 c -246.9,114.2 -546.5,214.4 -810.9,302.8 -218.8,73.2 -426.2,142.6 -513.9,192.2 -13.1,39 -24.2,136.9 -27,236.3 137.5,136 550.5,610.1 550.5,1401.5 0,542.5 -346.8,1354.7 -1302.4,1369.1 v -1.8 c -13.7,2.6 -27.6,3 -40.7,1.6 -945.8,-21.9 -1289.6,-829 -1289.6,-1368.9 0,-791.6 413.4,-1265.6 551.1,-1401.5 -2.9,-98.3 -14.1,-197.4 -27,-236.3 -87.1,-49.4 -294.8,-118.8 -513.9,-192.2 -264.4,-88.4 -564,-188.6 -814.1,-304.3 -13.6,-6.8 -26.5,-13.6 -29.7,-16.1 -348.3,-162.9 -573.38,-516.4 -573.38,-900.5 0,-120.1 21.04,-237.6 62.44,-349.2 17.89,-48.1 63.62,-78 112.26,-78 13.92,0 27.95,2.4 41.75,7.5 61.93,23.1 93.53,92 70.53,154 -31.5,84.7 -47.5,174.1 -47.5,265.7 0,291.5 170.8,559.9 444.8,688.5 z M 7066,11859.9 c -33.33,81.2 -50.16,168.1 -50.16,258 0,291.9 210.13,551.7 576.73,713 146.17,64.7 291.4,124.3 424.01,178.8 242.53,99.6 434.07,178.3 537.33,246.7 31.8,20.7 116.23,75.9 115.07,454.2 -0.12,35.2 -15.67,68.5 -42.57,91.2 -4.68,4 -473.83,408.7 -473.83,1173.1 0,288.1 178.21,1038.1 991.86,1050 3.04,0 5.96,0.3 8.89,0.5 3.04,-0.2 5.96,-0.5 9,-0.5 813.65,-11.9 991.87,-761.9 991.87,-1050 0,-758.9 -469.39,-1169.3 -473.84,-1173.1 -26.9,-22.7 -42.44,-56 -42.56,-91.2 -1.17,-378.3 83.26,-433.5 114.48,-453.8 96,-63.5 298.02,-131.3 554.02,-217.2 170.4,-57 363.6,-121.8 538.6,-190.8 61.4,-24 131,6.1 155.3,67.6 24.2,61.5 -5.9,130.9 -67.6,155.3 -180.7,71.2 -377,137 -550.1,195 -203.9,68.3 -397.05,133.1 -480.66,179.4 -11.34,37 -21.05,125 -23.85,213.1 132.11,131.2 515.71,576.1 515.71,1315.7 0,511.1 -327,1276.2 -1227.86,1289.5 v -1.2 c -13.68,2.5 -27.48,2.7 -40.35,0.9 -889.18,-21.8 -1212.4,-781.1 -1212.4,-1289.2 0,-739.7 383.67,-1184.6 515.7,-1315.8 -2.7,-88.5 -12.64,-177.1 -24.1,-213.7 -91.44,-55 -272.11,-129.1 -479.08,-214.2 -134.48,-55.2 -281.71,-115.7 -429.63,-181.2 -457.34,-201.2 -719.63,-540.9 -719.63,-932.1 0,-121.2 22.92,-238.5 67.94,-348.8 19.06,-46.3 63.73,-74.4 110.86,-74.4 15.2,0 30.52,2.8 45.36,8.9 61.16,25.1 90.51,95 65.49,156.3 z m 9528.7,1585.3 c -11.4,36.7 -21.4,125.4 -24.3,214.1 132.2,131.3 515.5,576.2 515.5,1315.6 0,511.1 -327,1276.3 -1227.9,1289.5 v -1.2 c -13.8,2.5 -27.4,2.7 -40.4,0.9 -888.5,-21.8 -1211.5,-781.1 -1211.5,-1289.2 0,-739.6 383.1,-1184.5 514.9,-1315.7 -2.7,-88 -12.4,-176.3 -23.6,-213.4 -82.3,-45.4 -272.9,-109.3 -473.6,-176.5 -175.3,-58.7 -373.9,-125.2 -556.9,-197.7 -61.5,-24.4 -91.6,-93.9 -67.2,-155.5 24.3,-61.6 94.1,-91.4 155.4,-67.2 177,70.2 372.3,135.5 544.7,193.3 252.8,84.7 452.4,151.6 547.8,214.7 34.3,22.7 114.5,75.9 113.6,453.7 -0.2,34.9 -15.7,68.2 -42.1,90.9 -4.8,4.1 -473.5,414.4 -473.5,1173.4 0,288.1 178,1038.1 990.9,1050 3.1,0 6,0.3 9,0.5 2.9,-0.2 6,-0.5 9,-0.5 813.7,-11.9 991.9,-761.9 991.9,-1050 0,-758.9 -469.4,-1169.3 -473.8,-1173.1 -27.1,-22.8 -42.6,-56.2 -42.6,-91.5 0,-377.5 80.1,-430.7 114.4,-453.5 103.3,-68.4 293.5,-146.5 534.4,-245.5 133.6,-54.8 280.3,-115 427.8,-180.4 366.3,-161.3 576.4,-421.1 576.4,-713 0,-89.4 -16.7,-176.7 -49.6,-259 -24.5,-61.5 5.4,-131.1 66.8,-155.6 14.6,-5.9 29.6,-8.6 44.4,-8.6 47.5,0 92.5,28.6 111.2,75.3 44.2,110.9 66.7,227.8 66.7,347.9 0,391.2 -262.3,731 -719.2,932 -149.3,66.2 -297.9,127.3 -433.6,183 -205.1,84.2 -384,157.7 -475,212.3 z M 9032.65,9642.3 c -46.78,46.5 -122.55,46.7 -169.33,-0.3 l -674.37,-675.8 -332.57,332.7 c -46.78,46.8 -122.55,46.8 -169.33,0 -46.77,-46.7 -46.77,-122.5 0,-169.3 l 417.35,-417.5 c 22.45,-22.4 52.86,-35 84.66,-35 31.81,0 62.33,12.6 84.78,35.2 l 759.04,760.6 c 46.66,46.8 46.66,122.6 -0.23,169.4 z M 8360.73,8035.6 c 620.82,0 1125.99,505.1 1125.99,1125.9 0,620.9 -505.17,1126 -1125.99,1126 -620.82,0 -1125.99,-505.1 -1125.99,-1126 0,-620.8 505.17,-1125.9 1125.99,-1125.9 z m 0,-239.5 c -752.96,0 -1365.48,612.5 -1365.48,1365.4 0,753 612.52,1365.5 1365.48,1365.5 752.95,0 1365.47,-612.5 1365.47,-1365.5 0,-752.9 -612.52,-1365.4 -1365.47,-1365.4 z m 1910.97,795.4 c -66.2,0 -119.7,-53.6 -119.7,-119.8 0,-66.2 53.5,-119.7 119.7,-119.7 h 6289.9 c 66.2,0 119.8,53.5 119.8,119.7 0,66.2 -53.6,119.8 -119.8,119.8 z m 7568.8,1379.6 h -7568.8 c -66.2,0 -119.7,-53.6 -119.7,-119.8 0,-66.1 53.5,-119.7 119.7,-119.7 h 7568.8 c 66.2,0 119.7,53.6 119.7,119.7 0,66.2 -53.5,119.8 -119.7,119.8 z m 0,-929.3 h -7568.8 c -66.2,0 -119.7,53.5 -119.7,119.7 0,66.2 53.5,119.8 119.7,119.8 h 7568.8 c 66.2,0 119.7,-53.6 119.7,-119.8 0,-66.2 -53.5,-119.7 -119.7,-119.7"
             style="fill:url(#linearGradient32);fill-opacity:1;fill-rule:nonzero;stroke:none"
             id="path34" />
        </g>
      </g>
    </g>
  </g>
</svg>
